<svg version="1.1" id="Layer_1" xmlns="http://www.w3.org/2000/svg" xmlns:xlink="http://www.w3.org/1999/xlink" x="0px" y="0px"
	 width="100%" viewBox="0 0 432 272" enable-background="new 0 0 432 272" xml:space="preserve">
<path fill="#000000" opacity="1.000000" stroke="none" 
	d="
M248.000000,273.000000 
	C165.333344,273.000000 83.166695,273.000000 1.000033,273.000000 
	C1.000022,182.333359 1.000022,91.666725 1.000011,1.000070 
	C144.999939,1.000046 288.999878,1.000046 432.999878,1.000023 
	C432.999908,91.666595 432.999908,182.333191 432.999939,272.999878 
	C371.500000,273.000000 310.000000,273.000000 248.000000,273.000000 
M214.511490,40.115772 
	C214.208817,40.254936 213.890808,40.368172 213.605667,40.536942 
	C159.843414,72.355598 105.761597,103.621269 51.385815,134.379837 
	C45.842518,137.515488 45.957176,139.536957 51.948605,142.887695 
	C104.734673,172.408569 156.877396,203.045364 209.076767,233.580780 
	C214.856552,236.961823 219.476395,236.784378 225.191498,233.471069 
	C278.375732,202.637817 331.303589,171.356781 385.014587,141.437485 
	C386.380737,140.676468 388.183960,140.189560 388.484741,137.994644 
	C387.289825,136.396454 385.391724,135.655151 383.688202,134.682404 
	C356.346832,119.069977 328.944794,103.563156 301.661133,87.850609 
	C275.530884,72.802269 249.536362,57.518356 223.434402,42.420578 
	C220.942078,40.978977 218.554291,38.684704 214.511490,40.115772 
z"/>
<path fill="#000000" opacity="1.000000" stroke="none" 
	d="
M205.681992,77.591103 
	C213.093567,72.045235 219.621994,72.686516 227.466995,77.094627 
	C261.005402,95.939926 294.682465,114.533409 327.661011,134.356628 
	C329.494263,135.458572 331.500519,136.399597 332.574585,138.485901 
	C332.045898,140.965363 329.799774,141.734375 328.043823,142.807480 
	C292.660706,164.430695 256.502319,184.724243 220.577103,205.418503 
	C218.338440,206.708038 216.430862,206.950272 214.096390,205.580612 
	C178.910568,184.936691 143.088089,165.371567 108.721077,143.342346 
	C106.646751,142.012711 104.373489,140.837555 102.470459,137.375671 
	C136.357346,116.809380 170.629211,96.905228 205.681992,77.591103 
z"/>
</svg>